<?xml version="1.0" encoding="UTF-8"?>
<svg version="1.1" xmlns="http://www.w3.org/2000/svg" width="1280" height="895">
<path d="M0 0 C49.5 0 99 0 150 0 C149.99476318 11.75028809 149.98952637 23.50057617 149.98413086 35.60693359 C149.9680665 73.24265213 149.95695137 110.87837068 149.94893467 148.51409175 C149.94768403 154.36421222 149.9463897 160.21433267 149.94506836 166.06445312 C149.94480605 167.22906191 149.94454374 168.3936707 149.94427348 169.59357066 C149.93992721 188.42810347 149.9320454 207.26263321 149.9228472 226.0971642 C149.91348165 245.43628315 149.90793824 264.7754005 149.90591151 284.11452162 C149.90454231 296.03895852 149.90022441 307.96338675 149.89208353 319.88782097 C149.88678026 328.07500279 149.88520383 336.26218016 149.88649862 344.44936357 C149.88713642 349.16642011 149.88618813 353.88346154 149.88079453 358.60051537 C149.87587897 362.93145488 149.87571406 367.26236933 149.87910111 371.59331007 C149.87951887 373.14812928 149.87829247 374.70295015 149.87511682 376.25776617 C149.85943885 384.41798941 150.00965014 392.54739386 150.44184208 400.69730568 C150.49935922 401.81322606 150.49935922 401.81322606 150.55803832 402.95169028 C150.89375346 408.70003242 151.78106514 414.08576754 153.3125 419.625 C153.51294922 420.43066406 153.71339844 421.23632812 153.91992188 422.06640625 C155.32612231 427.4387014 157.37483423 432.12164766 160 437 C162.66666667 442.33333333 165.33333333 447.66666667 168 453 C168.66 453 169.32 453 170 453 C171.62109375 454.86328125 171.62109375 454.86328125 173.4375 457.3125 C175.90976977 460.63908504 175.90976977 460.63908504 178.72265625 463.66796875 C180 465 180 465 180 467 C180.78375 467.268125 181.5675 467.53625 182.375 467.8125 C185 469 185 469 187 472 C188.63966796 473.04367943 190.31079349 474.03856402 192 475 C193.79565918 476.22332672 195.58703607 477.45295348 197.375 478.6875 C211.29712186 487.96324134 226.10676 494.72284231 242.2421875 499.22265625 C244.40603308 499.83257873 246.55429259 500.49783367 248.6953125 501.18359375 C281.52058093 511.40270882 315.08363326 510.09555096 345.9375 494.6875 C346.81277344 494.21699219 347.68804687 493.74648438 348.58984375 493.26171875 C351 492 351 492 353.5234375 491 C361.65711741 487.71573808 368.9337384 482.11176371 376 477 C376.73605469 476.47148437 377.47210938 475.94296875 378.23046875 475.3984375 C394.6972546 463.34956981 405.81328692 445.8330383 413 427 C413.33 426.34 413.66 425.68 414 425 C417.79979329 405.26088255 417.44877822 385.35065079 417.43273985 365.34420884 C417.43210877 360.42770408 417.44880281 355.51125169 417.46325684 350.59477234 C417.48591417 342.10299335 417.49790554 333.61125502 417.50238609 325.11944771 C417.50887983 312.84214726 417.53187335 300.56491993 417.55872939 288.28764915 C417.60187432 268.36243073 417.63191103 248.43721541 417.65356445 228.51196289 C417.67461116 209.1711271 417.70191829 189.83031662 417.73754883 170.48950195 C417.73974765 169.29477237 417.74194648 168.10004279 417.74421193 166.86910928 C417.75528251 160.87473704 417.76647514 154.88036503 417.77772844 148.88599312 C417.87073925 99.25734408 417.93997745 49.62870205 418 0 C466.18 0 514.36 0 564 0 C567.96 11.385 567.96 11.385 572 23 C572.99 24.98 573.98 26.96 575 29 C575.5368515 30.42414772 576.0409011 31.86141956 576.5 33.3125 C576.7165625 33.98925781 576.933125 34.66601562 577.15625 35.36328125 C577.64757317 36.89866615 578.13785441 38.43438667 578.62548828 39.97094727 C580.43359053 45.54907038 582.56111709 50.92672851 584.875 56.3125 C585.58463939 57.98437331 586.29427481 59.65624831 587.00390625 61.328125 C588.17350209 64.06986498 589.34842115 66.80912124 590.52734375 69.546875 C592.82389381 74.93574019 594.72527843 80.2503507 596.31640625 85.88671875 C597.1704492 88.52693151 598.51075621 90.66900971 600 93 C600.67672521 94.996619 601.34211159 96.99709529 602 99 C602.75154368 100.88281468 603.52293156 102.75781209 604.3125 104.625 C606.10146759 108.8678612 607.87206862 113.11712439 609.625 117.375 C610.89799327 120.43976122 612.20245683 123.40491367 613.6875 126.375 C615.10025963 129.20051926 616.01832176 131.9972195 617 135 C619.12242679 140.84750239 621.66274687 146.40500667 624.5 151.9375 C627.09628456 157.00614308 629.24775502 162.08923902 631.10546875 167.47265625 C632.97163973 172.74520045 635.24022074 177.79600507 638.0625 182.625 C639.66254407 185.41217354 640.94550564 188.15515806 642.19018555 191.10888672 C643.50982164 194.19055726 644.94613606 197.21794277 646.375 200.25 C648.50092923 204.7738968 650.59241489 209.30811573 652.625 213.875 C654.50418871 218.04135918 656.62413633 221.99848857 658.890625 225.96484375 C660.13138254 228.2410222 661.08335657 230.598305 662.0625 232.99609375 C664.7614512 238.76510193 668.31253057 244.16370474 671.56640625 249.6328125 C672.01886719 250.41398438 672.47132813 251.19515625 672.9375 252 C673.33839844 252.680625 673.73929688 253.36125 674.15234375 254.0625 C675 256 675 256 675 260 C675.66 260 676.32 260 677 260 C679.43160605 263.36683915 680 264.73350364 680 269 C680.66 269 681.32 269 682 269 C683.12573242 270.49365234 683.12573242 270.49365234 684.35546875 272.5859375 C684.80994385 273.3476123 685.26441895 274.10928711 685.73266602 274.89404297 C686.21276123 275.71275879 686.69285645 276.53147461 687.1875 277.375 C690.80566456 283.43594507 694.48332661 289.35622555 698.66015625 295.0546875 C700 297 700 297 700.87109375 298.9453125 C702.43994373 301.80072804 704.6489945 303.77273163 707 306 C707.2333606 304.81579468 707.2333606 304.81579468 707.47143555 303.60766602 C710.39276933 288.88092759 713.34078867 274.29492796 718 260 C718.28746094 259.0615625 718.57492187 258.123125 718.87109375 257.15625 C720.15803613 253.04870335 721.79817637 249.66970606 724 246 C724.5878125 244.14375 724.5878125 244.14375 725.1875 242.25 C726.71917181 237.41871606 728.79139678 232.89438865 730.9375 228.3125 C731.27354248 227.58772461 731.60958496 226.86294922 731.95581055 226.11621094 C733.99506507 221.81566837 736.30156329 217.93497944 739 214 C739.71573527 212.35380887 740.4025696 210.69271945 741 209 C741.66 209 742.32 209 743 209 C743.28875 208.071875 743.5775 207.14375 743.875 206.1875 C745 203 745 203 747 200 C747.66 200 748.32 200 749 200 C749.22558594 199.14792969 749.45117188 198.29585937 749.68359375 197.41796875 C751.20508765 193.4675024 753.40458479 190.5420391 756.0625 187.3125 C756.79678223 186.40056885 756.79678223 186.40056885 757.54589844 185.47021484 C759.02271603 183.64024521 760.51075115 181.81985706 762 180 C762.81855469 178.98550781 763.63710938 177.97101563 764.48046875 176.92578125 C776.41261716 162.2005654 776.41261716 162.2005654 783 157 C783.91550434 155.93323842 784.81089519 154.84895063 785.6875 153.75 C786.450625 152.8425 787.21375 151.935 788 151 C788.66 151 789.32 151 790 151 C790 150.34 790 149.68 790 149 C791.86328125 147.37890625 791.86328125 147.37890625 794.3125 145.5625 C797.85055817 142.9246241 800.86446211 140.21124041 803.875 137 C806.11702714 134.88985681 808.36122158 133.58022084 811 132 C812.82564103 130.70584107 814.63779709 129.39249321 816.4375 128.0625 C827.45476519 120 827.45476519 120 830 120 C830 119.34 830 118.68 830 118 C830.54527344 117.69779541 831.09054687 117.39559082 831.65234375 117.08422852 C835.60824934 114.88946167 839.55980941 112.68771582 843.5 110.46484375 C845 109.62239583 846.5 108.77994792 848 107.9375 C848.7425 107.51662109 849.485 107.09574219 850.25 106.66210938 C861.92165664 100.12719745 874.42610604 95.48135321 887 91 C887.75200684 90.72720215 888.50401367 90.4544043 889.27880859 90.17333984 C891.87087315 89.23347103 894.4664082 88.3036813 897.0625 87.375 C897.88927246 87.07360107 898.71604492 86.77220215 899.56787109 86.46166992 C904.57694409 84.68376127 909.48512899 83.38302382 914.72241211 82.46533203 C917.06814267 81.98607783 919.24302854 81.29320815 921.5 80.5 C926.78936014 78.85734157 932.12349269 78.29936364 937.61108398 77.77392578 C941.64524339 77.38432018 945.62268106 76.92574753 949.61328125 76.2109375 C962.32673493 74.00687854 974.88040789 73.69935724 987.75 73.6875 C989.04963181 73.6823941 989.04963181 73.6823941 990.3755188 73.67718506 C1004.94590466 73.64443681 1019.39536889 74.37528823 1033.65625 77.57421875 C1036.40036291 78.0727326 1039.09084299 78.22072326 1041.875 78.375 C1047.33481204 78.75900213 1051.90149385 80.17563924 1057.0234375 82.03515625 C1059.92467402 82.97558331 1062.6074607 83.47183015 1065.625 83.875 C1073.30946851 84.99881555 1080.47639451 87.66086434 1087.7746582 90.2277832 C1090.85447691 91.29651239 1093.95336808 92.30511695 1097.05419922 93.31103516 C1099.8307438 94.29414793 1102.37823115 95.66236283 1105 97 C1106.47616308 97.57033573 1107.95574901 98.13184338 1109.4375 98.6875 C1130.45049661 106.99203758 1150.78586884 120.53629892 1168.4375 134.5 C1169.09492187 135.01667236 1169.75234375 135.53334473 1170.4296875 136.06567383 C1171.99411374 137.32793871 1173.50322373 138.65820908 1175 140 C1175 140.66 1175 141.32 1175 142 C1176.0828125 142.3403125 1176.0828125 142.3403125 1177.1875 142.6875 C1180.6270755 144.29263523 1182.40226346 146.22102603 1185 149 C1189.35941133 153.4700095 1193.71036681 157.75062578 1198.65234375 161.578125 C1200 163 1200 163 1200.44140625 165.046875 C1200.62574219 165.69140625 1200.81007813 166.3359375 1201 167 C1202.32395464 167.68510316 1203.65917222 168.34853774 1205 169 C1207.1484375 171.35546875 1207.1484375 171.35546875 1209.375 174.1875 C1212.03156 177.5378393 1214.69970431 180.82440478 1217.5625 184 C1220 187 1220 187 1220 190 C1220.99 190.33 1221.98 190.66 1223 191 C1224.82421875 193.1796875 1224.82421875 193.1796875 1226.6875 195.875 C1227.31011719 196.75929687 1227.93273438 197.64359375 1228.57421875 198.5546875 C1230 201 1230 201 1230 204 C1230.66 204 1231.32 204 1232 204 C1232.32613281 204.60328125 1232.65226562 205.2065625 1232.98828125 205.828125 C1233.64376953 207.02695312 1233.64376953 207.02695312 1234.3125 208.25 C1234.74175781 209.03890625 1235.17101563 209.8278125 1235.61328125 210.640625 C1236.95171762 213.01936822 1236.95171762 213.01936822 1238.60546875 215.13671875 C1240 217 1240 217 1241 219.5625 C1241.81768401 222.00429495 1241.81768401 222.00429495 1243.44360352 223.43725586 C1246.00937349 226.01349015 1247.36012536 229.32751993 1248.9375 232.5625 C1249.29158936 233.27833252 1249.64567871 233.99416504 1250.01049805 234.73168945 C1252.30442913 239.42153933 1254.35340844 244.15516177 1256.203125 249.0390625 C1257.00466082 251.1622136 1257.00466082 251.1622136 1258.5625 253.5625 C1260.68705431 257.16500514 1261.7485877 261.02422122 1263 265 C1263.66253396 267.02219202 1264.32937546 269.04297666 1265 271.0625 C1265.33773438 272.07957031 1265.67546875 273.09664063 1266.0234375 274.14453125 C1266.84170116 276.53713419 1267.70850613 278.89396273 1268.625 281.25 C1271.01019017 287.75506409 1272.3817419 294.55581562 1273.875 301.3125 C1274.02324219 301.97572266 1274.17148438 302.63894531 1274.32421875 303.32226562 C1274.67120228 304.88651251 1275.00474054 306.45376271 1275.32983398 308.02270508 C1275.81939334 310.19763272 1276.38746018 312.35530678 1277.00024414 314.4987793 C1281.25838199 330.33458741 1280.7140474 346.73204474 1280.6862793 363.00073242 C1280.68151494 366.43599507 1280.70204491 369.86948512 1280.74780273 373.30444336 C1281.06780909 397.62512652 1280.30261344 422.12364936 1271 445 C1270.53230565 447.01405948 1270.09686238 449.03577948 1269.6875 451.0625 C1268.42881547 456.68546759 1266.62746443 461.72437599 1264.30859375 466.98828125 C1262.99038541 470.02212791 1261.83233069 473.08450773 1260.6875 476.1875 C1255.62783576 489.40587283 1249.24063956 501.85731254 1242 514 C1241.14341797 515.44246094 1241.14341797 515.44246094 1240.26953125 516.9140625 C1238.85528708 519.281612 1237.43001195 521.6419567 1236 524 C1235.53722656 524.78761719 1235.07445312 525.57523438 1234.59765625 526.38671875 C1229.74072195 534.33119075 1224.21492936 541.85944658 1218.421875 549.140625 C1216.87507655 551.08702832 1216.87507655 551.08702832 1215.375 553.75 C1213.62646031 556.61124677 1211.39560855 558.66282093 1209 561 C1208.34 561.825 1207.68 562.65 1207 563.5 C1204.83329484 566.20838146 1202.45252812 568.54747188 1200 571 C1198.82513348 572.3261137 1197.65899394 573.65999182 1196.5 575 C1190.92164179 581.40298507 1190.92164179 581.40298507 1188 584 C1187.01 584 1186.02 584 1185 584 C1184.814375 584.5465625 1184.62875 585.093125 1184.4375 585.65625 C1182.29927704 589.14248308 1179.27721359 591.11582614 1176 593.5 C1175.30028076 594.0168335 1174.60056152 594.53366699 1173.87963867 595.06616211 C1161.78012297 603.91474269 1149.32625792 612.25521217 1136.0625 619.25 C1135.31685791 619.6433252 1134.57121582 620.03665039 1133.80297852 620.44189453 C1129.03038569 622.95079292 1124.24823481 625.4399614 1119.4375 627.875 C1118.38433594 628.40867187 1117.33117188 628.94234375 1116.24609375 629.4921875 C1113.20353296 630.90545882 1110.16317959 632.11368333 1107.01538086 633.26318359 C1105.10664679 633.9610103 1103.21100555 634.69434991 1101.31640625 635.4296875 C1087.82590606 640.64841858 1074.07476439 644.67387409 1060 648 C1058.81921875 648.30679688 1057.6384375 648.61359375 1056.421875 648.9296875 C1042.0336142 652.52983804 1027.27542128 654.0005315 1012.55786133 655.60766602 C1010.50921229 655.83357551 1008.46141117 656.06836072 1006.41674805 656.32788086 C998.72630523 657.25099751 990.9956762 657.1860767 983.26147461 657.18530273 C980.83494258 657.18747986 978.40887336 657.20566618 975.98242188 657.22460938 C967.25173915 657.2556909 958.89980356 656.79268673 950.25512695 655.48803711 C946.80253631 654.97039452 943.3700736 654.64693294 939.89233398 654.36791992 C915.62390857 652.38205276 891.50734536 646.72127993 868.671875 638.33984375 C865.83511859 637.30472944 863.00459556 636.34120286 860.125 635.4375 C854.89498113 633.70406571 849.97787845 631.34729228 845 629 C843.45201175 628.28344609 841.90381828 627.56733543 840.35546875 626.8515625 C838.67422845 626.06824623 836.99324022 625.28438871 835.3125 624.5 C834.51666504 624.13245605 833.72083008 623.76491211 832.90087891 623.38623047 C827.67965896 620.93129161 822.8378184 618.1360238 818 615 C816.7101273 614.20541375 815.41866373 613.41339904 814.125 612.625 C810.0948735 610.1101376 806.22221505 607.38969829 802.34375 604.6484375 C799.59411863 602.7145301 796.80817357 600.84748261 794 599 C793.95101562 599.72445312 793.90203125 600.44890625 793.8515625 601.1953125 C793.44342219 606.47298898 792.8075914 611.00254142 791 616 C790.47123212 618.35742345 790.01961099 620.7245763 789.56640625 623.09765625 C788.92417532 626.38853613 788.21405161 629.66147426 787.5 632.9375 C786.57680524 637.19804383 785.72945259 641.45230851 785 645.75 C784.39466909 649.21551948 783.58761263 652.46809115 782.5 655.8125 C780.85260545 661.00179285 780.22622792 666.20370405 779.5234375 671.58984375 C779.07497612 674.51153616 778.46840524 677.17504588 777.625 680 C775.45276132 687.39884344 774.29604603 695.01318196 772.96484375 702.59765625 C771.61194519 710.24943074 770.14542422 717.77453749 768 725.25 C766.28712412 731.39140152 765.29497755 737.48431476 764.49609375 743.8046875 C764.05203931 746.6648177 763.40868368 749.19788652 762.5 751.9375 C761.13598803 756.0840964 760.52417765 760.1042981 760 764.4375 C759.47129583 768.79280892 758.86907806 772.91787582 757.625 777.125 C755.29332515 785.03394737 754.01503579 793.1815248 752.51171875 801.27880859 C751.57673527 806.25081521 750.57472165 811.20915492 749.57495117 816.16845703 C749.32708862 817.39798096 749.32708862 817.39798096 749.07421875 818.65234375 C748.90325684 819.50038574 748.73229492 820.34842773 748.55615234 821.22216797 C747.9328162 824.33556509 747.31949069 827.45085171 746.70703125 830.56640625 C746.37529907 832.24621582 746.37529907 832.24621582 746.03686523 833.95996094 C745.6057348 836.14376141 745.1767522 838.32798736 744.75024414 840.51269531 C743.92742325 844.66652215 743.07579727 848.73511708 741.91015625 852.80859375 C740.96174158 856.13415078 740.47748862 859.31942741 740.0625 862.75 C739.47642866 867.12476875 738.74624468 871.26652561 737.5 875.5 C735.76240662 881.87117574 734.93392838 888.46250133 734 895 C681.86 895 629.72 895 576 895 C576.99 891.04 577.98 887.08 579 883 C579.35470715 880.92343628 579.67764089 878.84055191 579.9375 876.75 C580.83214353 870.50986139 582.29482168 864.49531065 583.90234375 858.41015625 C586.16595877 849.58280055 587.88416151 840.61870101 589.68359375 831.6875 C589.97460148 830.24739424 590.26561717 828.80729008 590.55664062 827.3671875 C590.99799483 825.18315662 591.43772581 822.9988645 591.87231445 820.81347656 C593.6048802 812.11461357 595.54845584 803.61245394 598.14648438 795.12402344 C599.32925222 790.7948766 599.89956043 786.439173 600.5078125 782 C600.95259911 779.28891968 601.58384511 776.85496749 602.4375 774.25 C603.76672995 770.11170773 604.55071296 766.04010456 605.25 761.75 C606.83413475 752.07518129 609.12934773 742.56745366 611.39941406 733.03613281 C613.14875111 725.68814231 614.81301994 718.33127572 616.36303711 710.93847656 C616.87361726 708.58303664 617.42927825 706.26201363 618.0625 703.9375 C618.91753052 700.6494558 619.40154664 697.36357732 619.875 694 C620.93131119 686.81375694 622.69943163 679.89147799 624.51953125 672.87109375 C626.48061724 665.23401906 628.10395108 657.52614937 629.68652344 649.80371094 C629.99638184 648.29212402 629.99638184 648.29212402 630.3125 646.75 C630.52165039 645.72938477 630.73080078 644.70876953 630.94628906 643.65722656 C632.7504905 634.96425602 634.78875004 626.33778281 636.94458008 617.72558594 C638.41540664 611.77079839 639.56981211 605.83840644 640.53295898 599.78125 C641.16520115 596.01621979 642.02076537 592.32918938 642.9375 588.625 C643.29404848 587.14609323 643.64950503 585.66692281 644.00390625 584.1875 C644.1755127 583.47207031 644.34711914 582.75664063 644.52392578 582.01953125 C645.44352902 578.11852716 646.25479494 574.19481183 647.08203125 570.2734375 C648.6105005 563.09234529 650.23686863 555.9320371 651.84326172 548.76806641 C652.97745912 543.69023893 654.09096291 538.61415207 655.08984375 533.5078125 C655.74838217 530.15919717 656.52540933 526.89835345 657.5 523.625 C658.86711138 518.77175461 659.70225518 513.94409854 660.46484375 508.96484375 C660.9855652 506.07997091 661.71960436 503.36808016 662.5625 500.5625 C665.85109441 489.68819926 665.85109441 489.68819926 663.3671875 479.1171875 C661.0360995 476.26627499 658.56510466 473.64144707 656 471 C654.35578524 469.05777131 652.7300909 467.09968419 651.125 465.125 C650.40570312 464.26132812 649.68640625 463.39765625 648.9453125 462.5078125 C647.07435329 460.09585303 645.553781 457.62228369 644 455 C643.360625 454.360625 642.72125 453.72125 642.0625 453.0625 C639.5996487 450.5996487 637.92353201 447.90456837 636 445 C634.55607865 443.03101633 633.09743759 441.07275078 631.625 439.125 C630.50051097 437.6349527 629.37603567 436.14489499 628.25195312 434.65454102 C627.36356127 433.48047089 626.47122397 432.30938151 625.57617188 431.14038086 C621.91724061 426.32883879 618.52671791 421.39095892 615.25 416.3125 C614.52876953 415.21325195 614.52876953 415.21325195 613.79296875 414.09179688 C611.46188117 410.49127302 609.38775137 407.09063922 608 403 C607.34 403 606.68 403 606 403 C605.74347656 402.52433594 605.48695313 402.04867188 605.22265625 401.55859375 C602.51670137 396.6113429 599.66971018 391.76101432 596.75 386.9375 C587.86419301 372.22462914 579.56954568 357.14967946 571.8125 341.8125 C571.49144287 341.1834375 571.17038574 340.554375 570.83959961 339.90625 C569.00765168 336.24897962 567.38868795 332.55240292 565.8815918 328.7487793 C565.52743698 327.85692429 565.17328217 326.96506927 564.80839539 326.04618835 C564.54162491 325.3709462 564.27485443 324.69570404 564 324 C563.99576806 324.56339112 563.99153612 325.12678225 563.98717594 325.70724583 C563.8833998 339.48213214 563.77464141 353.2569716 563.66066074 367.03177738 C563.60568566 373.69345195 563.5523088 380.35512846 563.50268555 387.0168457 C563.45466401 393.45541804 563.40231219 399.8939424 563.34705925 406.33245659 C563.32680546 408.77899404 563.30806645 411.22554455 563.29092598 413.67210579 C563.044469 448.46367472 563.044469 448.46367472 560.25 459.8125 C560.0744458 460.55693359 559.8988916 461.30136719 559.71801758 462.06835938 C559.16277355 464.38361761 558.58494702 466.69208246 558 469 C557.81421387 469.74685059 557.62842773 470.49370117 557.43701172 471.26318359 C553.03342128 488.75976167 546.4981448 505.10011935 538 521 C537.63616211 521.68368652 537.27232422 522.36737305 536.89746094 523.07177734 C532.18077126 531.86793234 527.12082286 540.09158007 521 548 C520.13869797 549.12842952 519.27805417 550.25736166 518.41796875 551.38671875 C515.96095619 554.60358602 513.48925844 557.80799173 511 561 C510.28328125 561.95132813 509.5665625 562.90265625 508.828125 563.8828125 C508.22484375 564.58148437 507.6215625 565.28015625 507 566 C506.34 566 505.68 566 505 566 C504.86851562 566.88365234 504.86851562 566.88365234 504.734375 567.78515625 C503.80267808 570.59511452 502.53211708 571.5800626 500.25 573.4375 C496.97292495 576.13295677 493.97427832 578.97156184 491 582 C475.7987152 597.40042827 475.7987152 597.40042827 471 599 C469.65273539 600.31925495 468.32111289 601.65455722 467 603 C465.3811399 604.22401617 463.73392644 605.41130182 462.0625 606.5625 C461.22847656 607.14128906 460.39445312 607.72007812 459.53515625 608.31640625 C452.48259861 613 452.48259861 613 450 613 C449.67 613.99 449.34 614.98 449 616 C446.41015625 617.6484375 446.41015625 617.6484375 443.0625 619.375 C442.47855469 619.67954102 441.89460938 619.98408203 441.29296875 620.29785156 C436.9155238 622.57020426 432.49826372 624.76534831 428.07421875 626.9453125 C426.45072576 627.77081741 424.87105738 628.68261647 423.3125 629.625 C406.52229723 639.60836381 384.30469458 646.60536247 365.31640625 650.51171875 C363.67157099 650.85843782 362.0338539 651.23972046 360.40234375 651.64453125 C357.66291095 652.31946397 354.91667027 652.94047478 352.15867615 653.5344696 C350.70184841 653.84864253 349.24642069 654.16936901 347.79237366 654.49617004 C329.0561371 658.58492331 310.41656306 658.68535864 291.34033203 658.63134766 C287.79391566 658.62211114 284.24887551 658.63585559 280.70263672 658.67236328 C251.08277527 658.97452165 223.38359936 656.078126 195 647 C194.33242676 646.78988281 193.66485352 646.57976563 192.97705078 646.36328125 C185.18467178 643.89603724 177.55288142 641.12270391 170 638 C169.18144531 637.68289063 168.36289063 637.36578125 167.51953125 637.0390625 C158.26877717 633.4534989 149.61961801 628.88619684 141 624 C139.81003888 623.33698278 138.61992284 622.67424356 137.4296875 622.01171875 C136.16126691 621.29982013 134.8930379 620.58758005 133.625 619.875 C133.0175293 619.53815186 132.41005859 619.20130371 131.78417969 618.85424805 C128.7928849 617.16233355 126.34221511 615.50746341 124 613 C122.39001154 612.09438149 120.77878903 611.19085745 119.16015625 610.30078125 C115.46208556 608.07391409 112.04935088 605.45281987 108.58203125 602.88671875 C106.62495887 601.45666435 104.67055992 600.10749272 102.625 598.8125 C99.72306684 596.80878425 97.45845261 594.52148985 95 592 C94.071875 591.278125 93.14375 590.55625 92.1875 589.8125 C91.465625 589.214375 90.74375 588.61625 90 588 C90 587.34 90 586.68 90 586 C89.42765625 585.7421875 88.8553125 585.484375 88.265625 585.21875 C85.78871005 583.88634058 83.8658834 582.34943882 81.75 580.5 C81.04359375 579.8915625 80.3371875 579.283125 79.609375 578.65625 C78 577 78 577 78 575 C77.01 574.67 76.02 574.34 75 574 C73.28125 572.2578125 73.28125 572.2578125 71.5 570.125 C68.99734679 567.14615469 68.99734679 567.14615469 66.28125 564.3671875 C65 563 65 563 65 561 C64.44054687 560.79632812 63.88109375 560.59265625 63.3046875 560.3828125 C60.13855918 558.48313551 58.27394279 555.80297581 56.125 552.875 C55.68736328 552.29041016 55.24972656 551.70582031 54.79882812 551.10351562 C53.92702257 549.93810348 53.05813426 548.77050253 52.19238281 547.60058594 C51.1741287 546.23374033 50.13236111 544.88446429 49.0859375 543.5390625 C46.45246035 540.15316331 44.29837479 537.15479933 43 533 C42.34 533 41.68 533 41 533 C40.58234375 532.1234375 40.1646875 531.246875 39.734375 530.34375 C38.0976764 527.18831305 36.29028607 524.40536736 34.25 521.5 C30.21531134 515.52159272 27.01051418 509.33998586 23.90185547 502.84179688 C22.99186897 500.98339457 22.03749623 499.15526293 21.06640625 497.328125 C11.95984785 480.05645054 6.28462083 461.66524595 1.53735352 442.78393555 C1.1515888 440.99388347 1.1515888 440.99388347 0 440 C-0.09871927 437.6587739 -0.13179509 435.34706108 -0.12304783 433.0053091 C-0.12420167 432.26127084 -0.12535552 431.51723257 -0.12654433 430.75064769 C-0.12921804 428.22562467 -0.12468268 425.70066379 -0.12025452 423.17564392 C-0.12069007 421.35986855 -0.12156467 419.54409324 -0.12284368 417.72831827 C-0.12509187 412.7138772 -0.12106296 407.69945727 -0.11606562 402.6850189 C-0.11176592 397.2868947 -0.1132072 391.88877179 -0.1139679 386.49064636 C-0.11449344 377.12978264 -0.1113435 367.76892586 -0.10573006 358.40806389 C-0.09761912 344.87365995 -0.09500026 331.33925938 -0.09374207 317.80485327 C-0.0915509 295.84866004 -0.08488908 273.89247051 -0.07543945 251.9362793 C-0.06626699 230.6019694 -0.05918535 209.26766105 -0.05493164 187.93334961 C-0.05453756 185.96232661 -0.05453756 185.96232661 -0.05413551 183.95148497 C-0.05283052 177.35976426 -0.0515668 170.76804354 -0.05032361 164.17632282 C-0.039949 109.45087859 -0.02150962 54.72544121 0 0 Z M944.92749023 230.26098633 C943.02266574 230.99130979 941.10587189 231.66391809 939.17578125 232.32421875 C928.99884462 235.87749116 919.90901796 240.24020912 911.44921875 247.0546875 C909 249 909 249 906.56640625 250.4140625 C903.36104601 252.39484828 900.6834163 254.81905275 897.9375 257.375 C897.42123047 257.84421875 896.90496094 258.3134375 896.37304688 258.796875 C893.25967059 261.66832013 890.61775398 264.68172031 888 268 C887.18273437 268.81210937 886.36546875 269.62421875 885.5234375 270.4609375 C878.72060877 277.30588901 873.43518352 285.6234595 868.41015625 293.8203125 C867 296 867 296 865 298 C864.25028591 299.72760204 863.50339189 301.45668796 862.7890625 303.19921875 C861.73781048 305.59836322 860.35496378 307.76136419 859 310 C858.30959426 311.65697379 857.6469365 313.3255761 857 315 C856.42098352 316.29360754 855.83702031 317.58500476 855.25 318.875 C853.04953565 323.78054646 851.07006622 328.76713112 849.10644531 333.77099609 C848.12532701 336.25748944 847.15481357 338.70429494 845.9140625 341.07421875 C844.69442434 343.64379829 844.13684577 346.23110535 843.5 349 C842.22147356 354.5588106 842.22147356 354.5588106 841.015625 356.9609375 C838.28534908 362.44249146 837.41150684 369.04933867 836 375 C835.75668945 376.01723145 835.51337891 377.03446289 835.26269531 378.08251953 C834.45979133 381.44923056 833.66606485 384.81798871 832.875 388.1875 C832.62137695 389.25500488 832.36775391 390.32250977 832.10644531 391.42236328 C830.59439915 397.93295043 829.40479225 404.41751947 828.48901367 411.0390625 C827.99354223 414.03910126 827.26903202 416.88949906 826.4375 419.8125 C825.17965642 424.69397588 824.44512695 429.4890613 824 434.5 C823.92193115 435.18296143 823.8438623 435.86592285 823.76342773 436.56958008 C823.54883992 438.78544183 823.54883992 438.78544183 824 442 C826.1031562 444.32185486 826.1031562 444.32185486 829 446 C830.38445313 447.08087891 830.38445313 447.08087891 831.796875 448.18359375 C836.84176758 452.03399457 841.81472752 455.66142728 847.4453125 458.62109375 C850.9225917 460.49797381 854.30079763 462.5277623 857.6875 464.5625 C858.63266479 465.12710938 858.63266479 465.12710938 859.59692383 465.703125 C862.53239515 467.46742568 865.40263209 469.27084397 868.24609375 471.18359375 C871.37522162 473.2474866 874.538522 474.56766428 878 476 C879.83750266 476.91875133 881.67460963 477.83832394 883.5078125 478.765625 C895.70097408 484.80487117 907.8707947 490.17297765 920.9296875 494.06640625 C923.38399241 494.81268981 925.77780815 495.62589609 928.1875 496.5 C934.88744158 498.77033011 941.89189245 500.03489765 948.79785156 501.51806641 C952.88231275 502.41193851 956.94464962 503.40120905 961.0078125 504.38671875 C989.72156589 510.27191364 1021.55249137 506.23025982 1048 494 C1049.17691406 493.50242187 1050.35382813 493.00484375 1051.56640625 492.4921875 C1067.5730266 485.53595431 1083.15976697 474.91661785 1095 462 C1095 461.34 1095 460.68 1095 460 C1095.82177734 459.70996094 1095.82177734 459.70996094 1096.66015625 459.4140625 C1100.01942641 457.38391927 1102.09606162 454.45451352 1104.4375 451.375 C1104.92903564 450.73546387 1105.42057129 450.09592773 1105.92700195 449.43701172 C1127.07070358 421.68039257 1137.0025397 385.90122991 1133.3125 351.25 C1131.39680567 337.56841 1128.25156071 323.79666019 1123 311 C1122.69449219 310.17886719 1122.38898438 309.35773438 1122.07421875 308.51171875 C1118.13657368 298.09235339 1112.54000334 288.97031773 1106 280 C1105.28972656 278.99839844 1104.57945312 277.99679687 1103.84765625 276.96484375 C1100.58080184 271.76742741 1100.58080184 271.76742741 1096 268 C1095.70738281 267.3915625 1095.41476562 266.783125 1095.11328125 266.15625 C1093.8120368 263.63594496 1092.35129874 262.32040429 1090.1875 260.5 C1089.12015625 259.59507812 1089.12015625 259.59507812 1088.03125 258.671875 C1086.42723027 257.35164338 1084.80973326 256.04778661 1083.1875 254.75 C1081 253 1081 253 1079.65234375 251.59765625 C1076.18102746 248.24122986 1071.97482703 245.71931398 1068 243 C1066.84177734 242.18402344 1066.84177734 242.18402344 1065.66015625 241.3515625 C1060.63861933 237.874435 1055.66990371 235.25140702 1050 233 C1048.85917969 232.525625 1047.71835938 232.05125 1046.54296875 231.5625 C1029.61783945 224.70578487 1012.94198184 222.25780347 994.75 222.4375 C993.41668137 222.4418959 993.41668137 222.4418959 992.056427 222.44638062 C975.60893053 222.52701555 960.36896139 224.27527988 944.92749023 230.26098633 Z " fill="#FEFEFE" transform="translate(0,0)"/>
</svg>
